# xmcd
#
# Track frame offsets:
#	150
#	24465
#	42412
#	57686
#	68398
#	92969
#	109974
#	130797
#	148231
#	164566
#	185205
#	202676
#
# Disc length: 2826 seconds
#
# Revision: 1
# Processed by: cddbd v1.5.2PL0 Copyright (c) Steve Scherf et al.
# Submitted via: audiograbber 1.83.01
#
DISCID=b40b080c
DTITLE=Muddy Waters - Original Hits
DYEAR=2004
DGENRE=Blues
TTITLE0=Manish Boy
TTITLE1=I'm Your Hoochie Coochie Man
TTITLE2=I'm Ready
TTITLE3=I Want To Be Loved
TTITLE4=Deep Down In Florida
TTITLE5=Mean Old Frisco Blues
TTITLE6=Champage and Reefer
TTITLE7=I'm A King Bee
TTITLE8=The Blues Had A Baby And They Named It Rock and Roll
TTITLE9=Forever Lonely
TTITLE10=Rock Me
TTITLE11=No Escape From The Blues
EXTD=
EXTT0=
EXTT1=
EXTT2=
EXTT3=
EXTT4=
EXTT5=
EXTT6=
EXTT7=
EXTT8=
EXTT9=
EXTT10=
EXTT11=
PLAYORDER=
